<svg xmlns="http://www.w3.org/2000/svg" aria-hidden="true" style="position:absolute;width:0;height:0;overflow:hidden"><defs><symbol id="icon-clientfrth" viewBox="0 0 66 32"><path fill="#8e8f99" d="M10.208 9.773h-.002c-1.862 0-3.372 1.361-3.372 3.039v.002c0 1.678 1.51 3.039 3.372 3.039h.002c1.862 0 3.372-1.36 3.372-3.039v-.002c0-1.678-1.51-3.039-3.372-3.039zm24.885-.972c-.005-2.331-1.034-4.566-2.863-6.216C30.401.937 27.923.008 25.336.002c-2.587.004-5.066.933-6.896 2.582s-2.86 3.885-2.865 6.217v12.858S35.09 19.7 35.092 8.803v-.002zM0 25.88c.005 1.623.721 3.178 1.993 4.325s2.997 1.794 4.796 1.799c1.799-.005 3.523-.651 4.796-1.798s1.989-2.701 1.994-4.324v-8.946S-.001 18.3-.001 25.88zm6.79 1.603c-.351 0-.695-.094-.988-.27a1.664 1.664 0 0 1-.651-.71l-.004-.01a1.443 1.443 0 0 1-.099-.935l-.002.01c.077-.329.249-.61.485-.82l.002-.001c.247-.22.557-.376.9-.437l.011-.002c.344-.062.702-.03 1.027.091s.603.326.798.59.3.574.3.891c.001.211-.044.421-.133.616s-.22.372-.385.522a1.804 1.804 0 0 1-.565.345l-.012.004a1.904 1.904 0 0 1-.68.123h-.002v-.006zm12.418-2.882v3.33h-.686v-3.33h.686zm1.327 1.422v.535h-1.514v-.535h1.514zm.159-1.422v.537h-1.673v-.537h1.673zm3.133 1.586v.158c0 .254-.034.481-.103.681-.066.199-.165.37-.292.517l.002-.002a1.27 1.27 0 0 1-.448.322 1.398 1.398 0 0 1-.554.112h-.022.001c-.208 0-.4-.037-.574-.112a1.29 1.29 0 0 1-.447-.321l-.001-.001a1.496 1.496 0 0 1-.292-.505l-.003-.011a2.071 2.071 0 0 1-.103-.651v-.032.002-.158c0-.254.034-.482.103-.681.066-.198.165-.37.292-.516l-.002.002c.126-.142.276-.25.448-.325.174-.075.365-.112.574-.112.211 0 .402.037.574.112.174.075.323.183.448.325.126.142.224.313.293.515.07.199.105.426.105.681zm-.693.158v-.162c0-.176-.016-.332-.048-.466a1.043 1.043 0 0 0-.144-.343l.002.004a.61.61 0 0 0-.225-.204l-.003-.002a.651.651 0 0 0-.295-.07h-.015.001a.65.65 0 0 0-.308.07.624.624 0 0 0-.225.204l-.001.002c-.063.097-.111.21-.138.332l-.001.007a1.99 1.99 0 0 0-.048.437v.031-.002.162c0 .176.016.331.048.467.032.134.08.247.142.341.062.091.139.161.229.208s.193.071.308.071a.658.658 0 0 0 .309-.07.62.62 0 0 0 .225-.206l.001-.002c.061-.094.108-.207.14-.341.03-.132.048-.283.048-.439v-.029.002zm2.92.713v-.007a.45.45 0 0 0-.028-.156l.001.003a.304.304 0 0 0-.095-.132h-.001a.828.828 0 0 0-.194-.119l-.005-.002a2.627 2.627 0 0 0-.312-.118l-.02-.005a4.292 4.292 0 0 1-.456-.175l.026.011a1.776 1.776 0 0 1-.361-.215l.004.003a.95.95 0 0 1-.239-.282l-.003-.005a.78.78 0 0 1-.088-.361v-.017.001-.011c0-.134.034-.26.093-.371l-.002.004a.873.873 0 0 1 .256-.293c.109-.083.24-.146.389-.19.151-.044.316-.066.496-.066.245 0 .46.044.642.133s.325.21.425.364c.101.154.153.33.153.528h-.681v-.012a.512.512 0 0 0-.063-.247l.001.003a.416.416 0 0 0-.18-.175l-.002-.001a.64.64 0 0 0-.283-.064h-.025.001-.023a.694.694 0 0 0-.278.057l.005-.002a.401.401 0 0 0-.179.143l-.001.001a.348.348 0 0 0-.059.195v.007c0 .056.013.108.041.153a.465.465 0 0 0 .127.127l.002.001c.056.04.125.077.208.112s.178.069.286.103c.182.055.341.116.478.185s.254.145.347.231c.094.086.163.182.211.29s.07.231.07.368l.001.032c0 .265-.129.5-.328.645l-.002.002c-.106.079-.234.139-.382.18s-.313.062-.496.062c-.164 0-.327-.022-.487-.065a1.49 1.49 0 0 1-.442-.202l.005.003a1.01 1.01 0 0 1-.308-.333l-.003-.005a.97.97 0 0 1-.116-.487h.688c0 .104.016.191.048.263.031.07.077.128.134.173l.001.001c.06.044.13.077.207.095l.004.001c.082.02.172.03.269.03h.026a.724.724 0 0 0 .272-.052l-.005.002a.362.362 0 0 0 .229-.336v-.005zm2.641-2.457v3.33h-.684v-3.33h.684zm1.025 0v.537h-2.716v-.537h2.716zm2.625 2.794v.535h-1.772v-.535h1.772zm-1.548-2.794v3.33h-.687v-3.33h.687zm1.317 1.355v.521h-1.542v-.521h1.542zm.229-1.355v.537h-1.77v-.537h1.77zm.402 0h1.241a1.7 1.7 0 0 1 .656.114c.185.076.326.19.425.339s.148.333.148.551c0 .179-.03.332-.091.46a.854.854 0 0 1-.252.316l-.002.001a1.316 1.316 0 0 1-.372.199l-.009.003-.217.115h-1.079l-.005-.535H34.013a.632.632 0 0 0 .281-.066l-.004.002a.431.431 0 0 0 .178-.176l.001-.002a.541.541 0 0 0 .062-.253v-.013.001-.015a.603.603 0 0 0-.061-.265l.002.004a.403.403 0 0 0-.179-.177l-.002-.001a.653.653 0 0 0-.283-.063h-.023.001-.556v2.793h-.685v-3.33zm1.861 3.329-.759-1.485.724-.005.769 1.457v.031h-.734zm3.602-1.186h-.848v-.535h.848l.027.001a.702.702 0 0 0 .297-.066l-.004.002a.412.412 0 0 0 .179-.181l.001-.002a.676.676 0 0 0-.001-.544l.002.004a.463.463 0 0 0-.178-.205l-.002-.001a.59.59 0 0 0-.295-.079l-.026.001h.001-.611v2.793h-.685v-3.33h1.296c.261 0 .484.047.671.142.187.093.33.222.429.386s.148.353.148.564c0 .215-.049.401-.148.558s-.242.279-.429.364c-.187.086-.41.128-.671.128zm3.956.651v.535h-1.772v-.535h1.772zm-1.548-2.794v3.33h-.687v-3.33h.687zm1.317 1.355v.521h-1.541v-.521h1.541zm.228-1.355v.537h-1.769v-.537h1.77zm1.937 0v3.33h-.683v-3.33h.684zm1.025 0v.537h-2.716v-.537h2.716zm2.625 2.794v.535h-1.772v-.535h1.772zM46.2 24.601v3.33h-.686v-3.33h.686zm1.317 1.355v.521h-1.541v-.521h1.541zm.228-1.355v.537h-1.769v-.537h1.769zm.403 0h1.241c.255 0 .474.038.657.114s.326.19.425.339a.982.982 0 0 1 .148.551c0 .179-.031.332-.091.46s-.146.234-.252.316l-.002.001a1.308 1.308 0 0 1-.373.199l-.009.003-.217.115h-1.079l-.005-.535H49.416a.632.632 0 0 0 .281-.066l-.004.002a.431.431 0 0 0 .178-.176l.001-.002a.55.55 0 0 0 .063-.255v-.011.001-.014a.592.592 0 0 0-.062-.266l.002.004a.403.403 0 0 0-.179-.177l-.002-.001a.653.653 0 0 0-.283-.063h-.023.001-.555v2.793h-.686v-3.33zm1.862 3.329-.759-1.485.725-.005.768 1.457v.031h-.734zm2.872-.872v-.005a.435.435 0 0 0-.029-.158l.001.003a.304.304 0 0 0-.095-.132h-.001a.828.828 0 0 0-.194-.119l-.005-.002a2.609 2.609 0 0 0-.311-.118l-.02-.005a3.94 3.94 0 0 1-.456-.175l.026.011a1.776 1.776 0 0 1-.361-.215l.004.003a.95.95 0 0 1-.239-.282l-.002-.005a.78.78 0 0 1-.088-.361v-.017.001-.011c0-.134.034-.26.093-.371l-.002.004a.873.873 0 0 1 .256-.293c.109-.083.24-.146.389-.19.151-.044.316-.066.496-.066.245 0 .46.044.642.133s.325.21.425.364c.102.154.153.33.153.528h-.681v-.012a.512.512 0 0 0-.063-.247l.001.003a.416.416 0 0 0-.18-.175l-.002-.001a.64.64 0 0 0-.283-.064h-.025.001-.023a.694.694 0 0 0-.278.057l.005-.002a.393.393 0 0 0-.178.143l-.001.001a.351.351 0 0 0-.059.196v.005c0 .056.013.108.041.153a.465.465 0 0 0 .127.127l.002.001c.056.04.125.077.208.112s.178.069.286.103c.182.055.341.116.478.185s.254.145.347.231c.094.086.163.182.211.29s.07.231.07.368l.001.032c0 .265-.129.5-.328.645l-.002.002c-.106.079-.234.139-.382.18s-.313.062-.496.062c-.165 0-.328-.022-.487-.065a1.49 1.49 0 0 1-.442-.202l.005.003a1.013 1.013 0 0 1-.309-.333l-.003-.005a.97.97 0 0 1-.116-.487h.688c0 .104.016.191.048.263.031.07.077.128.134.173l.001.001c.06.044.13.077.207.095l.004.001c.082.02.172.03.27.03h.025a.724.724 0 0 0 .272-.052l-.005.002a.362.362 0 0 0 .229-.336v-.005z" style="fill:var(--color1, #8e8f99)"/></symbol><symbol id="icon-clientfst" viewBox="0 0 28 32"><path fill="#8e8f99" d="m4.086 0 4.772 4.546L0 4.542v22.056h23.152v-8.433l4.767 4.541V0H4.086zm18.857 17.631L9.413 4.741h13.53v12.89zm-4.201 5.74H3.664V8.537H4.73v13.83h14.013v1.005zM6.671 30.686l-.562-1.156h-.464l.814 1.529v.891h.42v-.892l.815-1.529h-.462l-.562 1.156zm2.072-1.157h.099l.915 2.421h-.439l-.196-.567h-.937l-.195.567h-.437l.911-2.421h.279zm-.444 1.524h.709l-.354-1.027-.354 1.027zm2.925-.402-.041-.052-.011-.015a1.267 1.267 0 0 1-.142-.23l-.003-.008a.58.58 0 0 1-.051-.239v-.001c0-.126.026-.234.078-.326s.128-.162.218-.208l.003-.001a.71.71 0 0 1 .334-.075.64.64 0 0 1 .318.075.524.524 0 0 1 .237.673l.001-.003a.603.603 0 0 1-.116.173 1.198 1.198 0 0 1-.165.146l-.003.002-.168.123.479.565a.94.94 0 0 0 .104-.435v-.018.001h.346c0 .118-.012.229-.035.334a1.04 1.04 0 0 1-.179.403l.002-.003.354.419h-.463l-.141-.165a.933.933 0 0 1-.242.134l-.007.002c-.109.04-.235.063-.367.063h-.009a.903.903 0 0 1-.417-.089.664.664 0 0 1-.271-.24l-.002-.003a.656.656 0 0 1-.095-.343v-.012.001c0-.099.02-.185.061-.259a.805.805 0 0 1 .168-.21c.066-.059.14-.119.225-.178zm.199.244-.05.036a.62.62 0 0 0-.13.136l-.001.002a.407.407 0 0 0-.022.411l-.001-.002a.358.358 0 0 0 .133.137l.002.001c.06.032.13.051.205.051h.013-.001a.62.62 0 0 0 .392-.139l-.002.001-.538-.633zm.095-.443.148-.099a.536.536 0 0 0 .149-.135l.001-.001a.302.302 0 0 0 .045-.159v-.012.001a.24.24 0 0 0-.241-.233h-.014.001-.007a.245.245 0 0 0-.223.142l-.001.002a.34.34 0 0 0 .011.298l-.001-.002c.025.052.06.107.105.165l.027.035zm4.236.71h-.416a.76.76 0 0 1-.078.272l.002-.004a.386.386 0 0 1-.166.164l-.002.001a.621.621 0 0 1-.262.057l-.027-.001h.001-.014a.508.508 0 0 1-.24-.06l.003.001a.48.48 0 0 1-.172-.163l-.001-.002a.78.78 0 0 1-.098-.249l-.001-.005a1.599 1.599 0 0 1-.032-.32v-.013.001-.204c0-.129.012-.243.035-.343s.06-.185.108-.254a.47.47 0 0 1 .176-.155l.003-.001a.535.535 0 0 1 .236-.053h.014-.001c.116 0 .21.02.283.06s.126.095.163.17a.778.778 0 0 1 .073.267h.415a1.037 1.037 0 0 0-.139-.435l.003.005a.771.771 0 0 0-.305-.292l-.004-.002a1.01 1.01 0 0 0-.457-.107h-.033.002c-.152 0-.289.027-.411.08s-.225.129-.311.232a1.011 1.011 0 0 0-.197.353l-.002.007c-.046.14-.068.298-.068.472v.202c0 .174.022.331.067.472s.111.261.196.361a.878.878 0 0 0 .307.229.99.99 0 0 0 .404.08c.195 0 .361-.035.497-.106s.242-.168.317-.291a.962.962 0 0 0 .133-.424zm2.308-.356v-.133c0-.183-.024-.347-.073-.49a1.051 1.051 0 0 0-.206-.373l.001.001a.88.88 0 0 0-.312-.232l-.006-.002a1.006 1.006 0 0 0-.409-.082.983.983 0 0 0-.407.082.88.88 0 0 0-.318.234 1.084 1.084 0 0 0-.206.371c-.047.14-.074.301-.074.468v.023-.001.133c0 .183.024.347.074.492.048.143.119.266.21.372l-.001-.001c.09.102.196.18.317.235.123.053.259.08.408.08s.286-.027.409-.08a.873.873 0 0 0 .316-.235c.089-.102.157-.225.204-.37s.072-.309.072-.492zm-.417-.136v.136c0 .136-.014.255-.04.36a.783.783 0 0 1-.115.267l.002-.003a.503.503 0 0 1-.18.16l-.003.001a.54.54 0 0 1-.237.053h-.012.001-.011a.545.545 0 0 1-.239-.055l.003.001a.541.541 0 0 1-.185-.16l-.001-.002a.789.789 0 0 1-.115-.259l-.001-.005a1.405 1.405 0 0 1-.04-.341v-.02.001-.136c0-.135.014-.254.04-.358s.065-.191.115-.261a.5.5 0 0 1 .181-.158l.003-.001a.527.527 0 0 1 .237-.055h.01c.092 0 .174.018.248.054s.134.089.184.16a.72.72 0 0 1 .115.261c.027.104.04.223.04.358z" style="fill:var(--color1, #8e8f99)"/></symbol><symbol id="icon-clientfth" viewBox="0 0 44 32"><path fill="#8e8f99" d="M3.334 26.695c.17.191.262.429.257.673.008.159-.023.319-.092.466s-.174.278-.307.384a1.847 1.847 0 0 1-1.163.31h.006H0v-4.266h1.993a1.836 1.836 0 0 1 1.111.287l-.007-.004c.129.097.231.22.298.358s.097.289.089.44a.919.919 0 0 1-.232.652 1.107 1.107 0 0 1-.599.333l-.007.001c.27.045.513.174.687.365zm-2.387-.644h.852a.873.873 0 0 0 .541-.141.516.516 0 0 0 .145-.186l.001-.003a.447.447 0 0 0 .039-.185l-.002-.045v.002l.001-.036a.477.477 0 0 0-.041-.193l.001.003a.54.54 0 0 0-.141-.19l-.001-.001a.888.888 0 0 0-.562-.143h.003-.839v1.119zm1.477 1.637a.547.547 0 0 0 .156-.192l.001-.003a.475.475 0 0 0 .046-.205l-.001-.035v.002l.001-.03a.494.494 0 0 0-.049-.214l.001.003a.546.546 0 0 0-.159-.196l-.001-.001a.941.941 0 0 0-.522-.156l-.059.002h.003-.895v1.174h.905a.978.978 0 0 0 .572-.148zm4.984.842-1.109-1.668h-.417v1.667h-.953v-4.266h1.805a1.904 1.904 0 0 1 1.262.367l-.005-.004c.253.232.405.537.429.861s-.08.644-.295.904c-.223.23-.527.383-.861.434l1.181 1.704H7.408zm-1.525-2.25h.78c.542 0 .813-.216.813-.646l.001-.035a.572.572 0 0 0-.046-.227l.001.004a.626.626 0 0 0-.155-.221.902.902 0 0 0-.617-.173h.003-.79l.01 1.298zm6.739 1.39h-1.901l-.336.858h-1l1.746-4.218h1.081l1.739 4.218h-1l-.328-.858zm-.255-.645-.695-1.801-.694 1.8h1.389zm6.78 1.505h-.946l-2.123-2.901v2.901h-.945v-4.267h.945l2.123 2.918v-2.918h.947v4.266zm5.404-1.022a1.98 1.98 0 0 1-.844.748l-.012.005a3.04 3.04 0 0 1-1.331.269h-1.686v-4.266h1.686l.078-.001c.453 0 .884.097 1.272.271l-.02-.008c.362.165.661.424.856.744.195.347.296.73.296 1.119a2.276 2.276 0 0 1-.302 1.13l.006-.011zm-1.083-.102c.257-.263.416-.622.419-1.018v-.001a1.468 1.468 0 0 0-.419-1.018 1.75 1.75 0 0 0-1.191-.362h.005-.657v2.762h.657a1.76 1.76 0 0 0 1.19-.366l-.004.003zM13.214.533s12.221 4.153 11.962 10.164v10.167s-12.212-4.156-11.958-10.167L13.214.533zm22.85 17.951c2.308-1.43 4.978-2.317 7.765-2.576v-3.183c-3.211 1.114-5.935 3.134-7.765 5.758z" style="fill:var(--color1, #8e8f99)"/><path fill="#8e8f99" d="M34.677 19.443c1.888-3.425 5.164-6.067 9.151-7.384V2.888S26.423 8.805 26.791 17.364v14.474s.776-.264 1.996-.761c0-.463 0-.929.056-1.398.36-3.974 2.459-7.656 5.834-10.237z" style="fill:var(--color1, #8e8f99)"/><path fill="#8e8f99" d="M33.021 24.82c.103-1.095.318-2.101.637-3.06l-.028.096c-2.102 2.229-3.375 4.995-3.64 7.909-.025.275-.039.55-.046.833a49.032 49.032 0 0 0 3.636-1.726l-.288.139a13.192 13.192 0 0 1-.328-2.958c0-.434.02-.864.06-1.287l-.004.054zm.693.052a12.983 12.983 0 0 0 .231 3.88l-.015-.085c4.755-2.561 10.098-6.519 9.892-11.302v-.417c-3.397.343-6.576 1.68-9.047 3.806a12.764 12.764 0 0 0-1.056 4.067l-.004.051z" style="fill:var(--color1, #8e8f99)"/></symbol><symbol id="icon-clientsec" viewBox="0 0 25 32"><path fill="#8e8f99" d="M10.532 1.807h-.084c-.129-.008-.259-.011-.388-.014h-.28c-.244 0-.494.006-.741.018l-.028-.001-.029.001h.001a17.354 17.354 0 0 0-6.577 1.697l.104-.045-.266.128V17.22l.623-.212a23.463 23.463 0 0 1 1.731-.513c1.489-.398 3.202-.638 4.968-.662h.014v1.791a14.13 14.13 0 0 0-.656.018h-.052c-1.399.079-2.71.289-3.972.619l.139-.031a19.392 19.392 0 0 0-4.667 1.831l.1-.051V2.531A17.917 17.917 0 0 1 5.138.61l.127-.028A17.87 17.87 0 0 1 9.776 0h.267c.315.008.622.022.91.044.83.06 1.598.187 2.34.379l-.09-.02v1.762a13.167 13.167 0 0 0-2.135-.326l-.045-.003-.044-.004c-.152-.013-.304-.026-.446-.026zm3.102 1.801c.391.03.796.044 1.205.044a19.383 19.383 0 0 0 4.883-.64l-.135.03a19.501 19.501 0 0 0 4.666-1.832l-.101.051v17.167a17.979 17.979 0 0 1-4.665 1.921l-.127.028a17.97 17.97 0 0 1-4.512.581h-.115c-1.177 0-2.319-.147-3.41-.425l.095.021V3.275c.265.062.537.118.814.164.455.077.934.133 1.402.167zm8.736.133-.623.209c-.572.193-1.151.365-1.731.518-1.551.415-3.333.657-5.17.664h-.004c-.406 0-.78-.011-1.141-.034l-.497-.033v14.02l.427.037c.395.035.803.052 1.214.052a16.511 16.511 0 0 0 4.19-.554l-.116.026a16.994 16.994 0 0 0 3.286-1.189l-.102.044.267-.128V3.74zM1.683 25.982a.916.916 0 0 0-.661-.281l-.034.001H.99.976c-.139 0-.272.028-.393.078l.007-.003a.904.904 0 0 0-.51.512l-.002.006a1.003 1.003 0 0 0-.071.387v2.335c-.006.164.026.328.092.479a.83.83 0 0 0 .554.479c.114.031.231.048.349.048a.986.986 0 0 0 .968-.983v-.261h-.611v.222c0 .07-.013.136-.037.198l.001-.004a.37.37 0 0 1-.089.132.426.426 0 0 1-.255.089.308.308 0 0 1-.286-.125l-.001-.001a.548.548 0 0 1-.082-.289l.001-.024v.001V26.8a.74.74 0 0 1 .075-.349.31.31 0 0 1 .262-.143l.038.002H.985h.012c.107 0 .201.052.26.131l.001.001a.493.493 0 0 1 .101.3v.014-.001.202h.604v-.249c0-.143-.027-.28-.077-.406l.003.007a.955.955 0 0 0-.205-.329zm3.626-.026a1.051 1.051 0 0 0-1.058-.191.964.964 0 0 0-.557.512l-.002.006a1.08 1.08 0 0 0-.089.452v2.239a1.08 1.08 0 0 0 .089.459.888.888 0 0 0 .236.313.959.959 0 0 0 .323.197 1.049 1.049 0 0 0 1.059-.198l-.001.001a.948.948 0 0 0 .23-.313c.063-.144.093-.301.089-.459V26.714c0-.156-.033-.305-.092-.439l.003.007a1.016 1.016 0 0 0-.23-.327zm-.285 3.019.002.035a.398.398 0 0 1-.123.289.446.446 0 0 1-.575 0l.001.001a.4.4 0 0 1-.121-.326v.002-2.24l-.001-.034c0-.114.047-.216.123-.289a.446.446 0 0 1 .575 0l-.001-.001a.398.398 0 0 1 .121.326v-.002 2.241zm5.048 1.001v-4.241h-.587l-.771 2.245h-.01l-.777-2.244h-.58v4.24h.606v-2.579h.011l.593 1.823h.302l.598-1.823h.01v2.579h.606zm3.442-3.943a.834.834 0 0 0-.342-.232 1.31 1.31 0 0 0-.416-.066h-.024.001-.9v4.241h.604V28.32h.311c.189.009.376-.031.545-.116a.89.89 0 0 0 .33-.32l.002-.004a1.02 1.02 0 0 0 .139-.369c.021-.133.033-.287.033-.444v-.04.002a2.426 2.426 0 0 0-.059-.606.906.906 0 0 0-.223-.39zm-.312 1.292a.538.538 0 0 1-.057.224l.001-.003a.342.342 0 0 1-.154.147l-.002.001a.617.617 0 0 1-.254.054l-.033-.001h.002-.276v-1.442h.311l.029-.001c.088 0 .172.02.247.055l-.004-.002a.35.35 0 0 1 .141.154l.001.002a.62.62 0 0 1 .053.236v.282c0 .098.006.201 0 .291h-.006zm3.174-1.59h-.495l-.934 4.241h.604l.177-.911h.824l.178.911h.604l-.958-4.241zm-.558 2.752.297-1.537h.011l.295 1.537h-.604zm4.461-.198h-.011l-.912-2.554h-.581v4.241h.604v-2.55h.012l.923 2.549h.568v-4.24h-.604v2.554zm3.692-2.554-.486 1.687h-.012l-.486-1.687h-.639l.83 2.449v1.792h.604v-1.792l.83-2.448h-.64zM-.002 31.173h.291v.817h.198v-.817h.289v-.167h-.778v.168zm2.448-.168-.382.985h.21l.081-.224h.392l.084.224h.215l-.391-.985h-.21zm-.031.595.134-.365.134.365h-.268zm2.451.027h.228v.127a.373.373 0 0 1-.234.083h-.014a.25.25 0 0 1-.195-.094.406.406 0 0 1-.073-.234l.001-.023v.001c0-.219.095-.329.283-.329l.021-.001c.097 0 .178.067.201.157v.001l.194-.038c-.042-.192-.18-.289-.417-.289h-.013a.492.492 0 0 0-.331.127.48.48 0 0 0-.141.38v-.002.023c0 .132.048.254.127.347l-.001-.001c.087.09.209.146.343.146l.032-.001h-.001.016a.59.59 0 0 0 .402-.158v-.388h-.427v.166zm2.471-.622h-.199v.985h.689v-.167h-.49v-.817zm2.09 0h-.199v.985h.199v-.985zm2.042.657-.404-.657h-.193v.985h.185v-.643l.396.643h.198v-.985h-.182v.658zm1.847-.106h.491v-.167h-.491v-.215h.527v-.168h-.727v.985h.747v-.167h-.548v-.267zm4.478-.163h-.388v-.388h-.197v.984h.197v-.431h.388v.431h.198v-.985h-.198v.388zm1.858.163h.492v-.167h-.492v-.215h.529v-.168h-.726v.985h.746v-.167h-.548v-.267zm2.519 0c.171-.027.259-.118.259-.274a.23.23 0 0 0-.096-.219h-.001a.555.555 0 0 0-.25-.059l-.04.001h.002-.417v.984h.198v-.412h.055c.039 0 .076.008.109.023l-.002-.001a.201.201 0 0 1 .07.072l.215.313h.236l-.12-.192a.704.704 0 0 0-.215-.235l-.002-.002zm-.2-.136h-.146v-.247h.156a.515.515 0 0 1 .205.024l-.004-.001a.13.13 0 0 1-.009.2.537.537 0 0 1-.164.025l-.039-.001h.002zm2.1.136h.49v-.167h-.49v-.215h.529v-.168h-.729v.985h.747v-.167h-.548v-.267z" style="fill:var(--color1, #8e8f99)"/></symbol><symbol id="icon-clientsth" viewBox="0 0 67 32"><path fill="#8e8f99" d="M33.8 15.251a2.088 2.088 0 0 1-.431-1.423v.006-2.054c0-.629.143-1.108.429-1.435s.777-.491 1.472-.489c.654 0 1.118.139 1.392.418.299.356.444.79.411 1.228v.484h-1.169v-.489c.004-.16-.007-.32-.034-.479a.462.462 0 0 0-.166-.284l-.001-.001a.672.672 0 0 0-.426-.11h.002a.712.712 0 0 0-.448.118l.003-.002a.553.553 0 0 0-.193.309l-.001.004c-.03.141-.047.302-.047.468v.042-.002 2.492a1.27 1.27 0 0 0 .154.707l-.003-.007a.552.552 0 0 0 .23.169l.004.001c.095.036.199.05.302.039a.635.635 0 0 0 .414-.113.503.503 0 0 0 .174-.3v-.003c.027-.165.04-.332.036-.499v-.506h1.17v.462a1.869 1.869 0 0 1-.408 1.294l.003-.004c-.268.305-.725.457-1.399.457s-1.181-.163-1.47-.501zm4.868.021c-.295-.32-.443-.786-.443-1.402v-2.16c0-.61.148-1.072.443-1.385s.789-.469 1.482-.468c.688 0 1.179.156 1.474.468.296.314.446.775.446 1.385v2.16c0 .61-.15 1.078-.45 1.4s-.789.482-1.47.482-1.184-.163-1.482-.48zm2.027-.518a1.2 1.2 0 0 0 .14-.639V11.47l.002-.07a1.17 1.17 0 0 0-.143-.562l.003.006a.563.563 0 0 0-.234-.172l-.004-.001a.626.626 0 0 0-.312-.037h.003a.66.66 0 0 0-.314.039l.004-.002a.564.564 0 0 0-.24.17l-.001.001a1.138 1.138 0 0 0-.14.627v2.658c-.015.22.033.439.14.639a.745.745 0 0 0 .247.159.805.805 0 0 0 .606-.002l-.006.002a.755.755 0 0 0 .247-.159v-.013zm2.782-4.834h1.259l.947 3.986.968-3.986h1.225L48 15.673h-.906l-.097-3.998-.934 3.998h-.726l-.969-4.013-.09 4.013h-.915l.114-5.753zm5.934 0h1.961c1.129 0 1.695.545 1.695 1.633 0 1.043-.595 1.564-1.785 1.563h-.668v2.557h-1.21l.007-5.754zm1.675 2.459a.95.95 0 0 0 .356-.028.86.86 0 0 0 .31-.154.926.926 0 0 0 .174-.654v.004l.001-.066c0-.162-.021-.319-.062-.469l.003.013a.418.418 0 0 0-.09-.158.513.513 0 0 0-.15-.115l-.003-.001a1.234 1.234 0 0 0-.475-.093l-.069.002h.003-.469v1.72h.469zm3.727-2.459h1.3l1.334 5.753h-1.129l-.263-1.326h-1.16l-.272 1.327h-1.145l1.334-5.754zm1.111 3.76-.453-2.415-.453 2.415h.905zm2.6-3.76h.848l1.621 3.282V9.92h1.006v5.753h-.806l-1.632-3.425v3.425h-1.038l.002-5.753zm5.828 3.559-1.348-3.552h1.136l.823 2.281.772-2.281h1.111l-1.332 3.552v2.193h-1.162v-2.193zm-28.684 4.71v.301h-.988v2.337h-.413V18.49h-.993v-.301h2.394zm3.097 2.638h-.328a.141.141 0 0 1-.081-.025.134.134 0 0 1-.053-.06v-.001l-.286-.627h-1.37l-.286.627a.166.166 0 0 1-.043.071.144.144 0 0 1-.082.025h-.328l1.211-2.638h.421l1.225 2.628zm-2.005-.979h1.143l-.484-1.074a1.815 1.815 0 0 1-.087-.235l-.003-.014-.045.14-.044.111-.479 1.072zm4.092.72c.076.004.152.004.228 0 .065-.006.13-.016.194-.031.07-.015.128-.032.185-.052l-.01.003c.053-.018.107-.041.162-.064v-.594h-.49a.094.094 0 0 1-.03-.005h.001a.108.108 0 0 1-.03-.016.06.06 0 0 1-.018-.021.048.048 0 0 1-.006-.024V19.558h.939v1.011a1.796 1.796 0 0 1-.498.213l-.013.003c-.1.025-.201.043-.303.054a3.51 3.51 0 0 1-.353.017h-.014c-.213 0-.418-.036-.609-.103l.013.004a1.488 1.488 0 0 1-.486-.277l.002.002a1.297 1.297 0 0 1-.31-.41l-.003-.008a1.301 1.301 0 0 1-.111-.53v-.019.001-.016c0-.193.04-.377.112-.544l-.003.009c.07-.156.176-.299.313-.418a1.47 1.47 0 0 1 .484-.274c.208-.068.428-.1.649-.098.113 0 .225.007.336.023a1.63 1.63 0 0 1 .53.172c.076.042.145.087.211.138l-.116.164a.101.101 0 0 1-.039.035h-.001a.112.112 0 0 1-.055.014.16.16 0 0 1-.076-.022h.001a1.563 1.563 0 0 1-.125-.066l.007.004a1.112 1.112 0 0 0-.155-.069l-.008-.002a1.522 1.522 0 0 0-.213-.057l-.009-.001a1.752 1.752 0 0 0-.291-.023h-.017.001-.014c-.162 0-.318.027-.463.076l.01-.003a1.034 1.034 0 0 0-.356.209l.001-.001a.903.903 0 0 0-.226.329 1.221 1.221 0 0 0 .003.888l-.003-.008a.95.95 0 0 0 .242.332c.1.09.22.161.353.209.154.046.317.063.479.052zm3.859-.042h1.323v.301h-1.727v-2.638h.414l-.01 2.337zm2.697.301h-.414v-2.638h.414v2.638zm1.54-2.626a.203.203 0 0 1 .064.048l1.769 1.989-.002-.047.002-.049v.002-1.966h.361v2.65h-.221a.193.193 0 0 1-.077-.016h.001a.23.23 0 0 1-.065-.05l-1.767-1.988v2.052h-.346v-2.639h.215c.023 0 .047.004.068.012zm5.242-.012v.29h-1.468v.871h1.188v.28h-1.188v.9h1.467v.29h-1.894v-2.632h1.894zM10.806 1.893 29.19 6.397V22.18l-18.384-4.501V1.892zM9.626.548v17.898l20.74 5.083V5.633L9.626.548z" style="fill:var(--color1, #8e8f99)"/><path fill="#8e8f99" d="M20.742 31.837 0 26.75V8.854l20.742 5.085v17.899z" style="fill:var(--color1, #8e8f99)"/><path fill="#8e8f99" d="m9.97 1.69 18.144 4.447-7.716 6.66-18.147-4.45L9.97 1.689zM9.626.548 0 8.854l20.742 5.085 9.624-8.306L9.626.547zM21.91 30.829l8.457-7.299-8.457-2.074v9.374z" style="fill:var(--color1, #8e8f99)"/></symbol><symbol id="icon-clientthr" viewBox="0 0 34 32"><path fill="#8e8f99" d="M5.315 31.397c.013 0 .025.003.036.008.012.004.022.01.031.018l.172.162a1.416 1.416 0 0 1-.474.304l-.01.003a1.91 1.91 0 0 1-.688.11h-.036c-.219 0-.429-.038-.624-.107l.013.004a1.426 1.426 0 0 1-.487-.291l.001.001a1.295 1.295 0 0 1-.311-.441l-.003-.008a1.444 1.444 0 0 1-.11-.559v-.018.001-.019c0-.203.044-.395.122-.568l-.003.009c.075-.167.189-.32.334-.449.146-.125.318-.225.506-.29l.011-.003c.192-.065.414-.103.644-.103h.023-.001a1.84 1.84 0 0 1 .618.094c.171.064.328.151.464.26l-.144.173a.134.134 0 0 1-.036.031h-.001a.094.094 0 0 1-.05.014h-.009a.133.133 0 0 1-.063-.019h.001l-.078-.046-.107-.059a1.2 1.2 0 0 0-.333-.103l-.007-.001a1.438 1.438 0 0 0-.235-.018h-.023.001-.017c-.165 0-.324.028-.471.08l.01-.003c-.145.05-.269.124-.376.218l.001-.001c-.108.101-.19.219-.244.347-.056.13-.088.282-.088.441v.016-.001.017c0 .161.032.314.091.454l-.003-.008a.992.992 0 0 0 .59.556l.007.002c.141.05.291.075.443.073.088.002.176-.004.263-.015.219-.022.414-.108.571-.239l-.002.001a.137.137 0 0 1 .082-.03zm4.977-.814c.003.195-.037.39-.116.573a1.26 1.26 0 0 1-.323.444l-.001.001a1.506 1.506 0 0 1-.509.291 2.151 2.151 0 0 1-1.325-.004l.015.004a1.524 1.524 0 0 1-.509-.294l.002.002a1.311 1.311 0 0 1-.324-.441l-.003-.008a1.468 1.468 0 0 1 .003-1.157l-.004.01c.073-.167.185-.32.328-.451.144-.123.317-.219.507-.281.421-.14.888-.14 1.31 0a1.5 1.5 0 0 1 .508.293c.272.243.442.594.442.985v.036-.002zm-.453 0a1.176 1.176 0 0 0-.081-.46.952.952 0 0 0-.588-.559l-.007-.002a1.539 1.539 0 0 0-.963.003l.011-.003a1.038 1.038 0 0 0-.365.218l.001-.001a.925.925 0 0 0-.23.337l-.002.006c-.109.3-.109.621 0 .921a.935.935 0 0 0 .233.344c.101.094.226.168.364.215.307.098.645.098.952 0 .138-.048.263-.122.364-.215a.962.962 0 0 0 .231-.344c.058-.148.086-.304.081-.46zm3.849.483.044.103a2.5 2.5 0 0 1 .106-.204l1.101-1.709c.022-.03.041-.048.062-.055a.283.283 0 0 1 .074-.009h.018-.001.325v2.781h-.386v-2.131a.683.683 0 0 1 0-.098v.002l-1.108 1.734a.155.155 0 0 1-.064.063h-.001a.191.191 0 0 1-.093.023H13.7a.199.199 0 0 1-.094-.024h.001a.16.16 0 0 1-.064-.062v-.001l-1.14-1.745v2.232h-.373V29.19h.339c.027 0 .053.004.078.01h-.002a.123.123 0 0 1 .06.052v.001l1.124 1.712a.585.585 0 0 1 .057.1zm4.143-.138v1.041H17.4v-2.777h.96c.182-.003.363.017.537.061.14.034.268.092.379.172a.729.729 0 0 1 .214.269l.002.004a.81.81 0 0 1 .073.355v.012a.773.773 0 0 1-.31.619l-.002.001a1.09 1.09 0 0 1-.375.182l-.008.002a1.877 1.877 0 0 1-.518.064l-.521-.008zm0-.298h.521c.113.001.226-.013.333-.043a.716.716 0 0 0 .244-.121l-.002.001a.525.525 0 0 0 .198-.411v-.007l.001-.028a.453.453 0 0 0-.046-.201l.001.003a.527.527 0 0 0-.15-.189l-.001-.001a.929.929 0 0 0-.582-.149h.003-.521v1.145zm5.791 1.343H23.275a.169.169 0 0 1-.089-.026h.001a.17.17 0 0 1-.056-.063v-.001l-.293-.672h-1.472l-.304.671a.153.153 0 0 1-.053.062h-.001a.161.161 0 0 1-.092.028H20.571l1.293-2.781h.448l1.31 2.781zm-2.133-1.032h1.215l-.513-1.132a1.598 1.598 0 0 1-.094-.249l-.003-.013-.049.145a1.664 1.664 0 0 1-.047.117l-.509 1.132zm3.995-1.736a.185.185 0 0 1 .064.05l1.886 2.096v-2.159h.386v2.781h-.224a.222.222 0 0 1-.082-.016l.001.001a.256.256 0 0 1-.069-.052l-1.883-2.095a.683.683 0 0 1 0 .098v-.002 2.067h-.386v-2.781h.228a.206.206 0 0 1 .078.012zm5.51 1.662v1.104h-.431v-1.104l-1.191-1.675h.396c.031 0 .059.009.084.024h-.001a.261.261 0 0 1 .058.062l.745 1.081c.051.071.095.152.129.239l.003.007.056-.119a1.07 1.07 0 0 1 .073-.127l.735-1.088a.281.281 0 0 1 .055-.059h.001a.146.146 0 0 1 .085-.027h.398l-1.194 1.683zm-17.52-6.343c.187.02.377.037.569.052 2.907-1.111 5.366-2.929 7.071-5.229s2.577-4.975 2.51-7.696l-3.203-2.737c.651 2.896.347 5.891-.88 8.648-1.227 2.756-3.327 5.167-6.066 6.962z" style="fill:var(--color1, #8e8f99)"/><path fill="#8e8f99" d="m12.33 24.397.086.015c2.927-1.789 5.159-4.287 6.406-7.171s1.454-6.021.592-9.006L14.85 4.336c1.846 3.205 2.589 6.791 2.143 10.342s-2.064 6.922-4.663 9.719zm15.476-9.532c-.775 2.989-2.658 5.685-5.369 7.688a16.877 16.877 0 0 1-2.453 1.519l-.098.045c2.207-.554 4.237-1.535 5.93-2.864s3.008-2.975 3.84-4.808l-1.85-1.58z" style="fill:var(--color1, #8e8f99)"/><path fill="#8e8f99" d="m27.08 14.425-2.635-2.251c-.051 2.567-.905 5.075-2.473 7.264s-3.796 3.98-6.449 5.185h.013c.591 0 1.182-.03 1.769-.09 2.48-.865 4.67-2.24 6.375-4.004s2.874-3.861 3.4-6.104zM12.711 2.692 9.569.002c-2.81.928-5.227 2.559-6.934 4.68C.926 6.803.008 9.314 0 11.888c.01 2.843 1.131 5.604 3.184 7.843s4.92 3.828 8.15 4.518c2.883-3.001 4.571-6.71 4.819-10.587s-.958-7.719-3.442-10.971zm21.632 11.319c-.012-3.375-1.585-6.608-4.379-8.994-2.792-2.386-6.577-3.731-10.526-3.741h-.034c-1.896 0-3.72.31-5.422.883l.12-.035 19.246 16.444c.627-1.338.993-2.905.995-4.558v-.001z" style="fill:var(--color1, #8e8f99)"/></symbol><symbol id="icon-antenna" viewBox="0 0 32 32"><path fill="#2e2f42" d="m30.773 22.098-8.443-8.505.937-4.615c.242.094.499.144.758.146h.006a2.159 2.159 0 1 0-2.008-1.435l-4.96.605L8.972.161a.534.534 0 0 0-.377-.16.532.532 0 0 0-.373.155L6.709 1.66a.534.534 0 0 0 0 .754l.814.826a14.943 14.943 0 0 0 2.519 17.663.513.513 0 0 0 .146.098c-.034.18-.051.364-.052.547v6.187h-6.4a2.67 2.67 0 0 0-2.667 2.667v1.067c0 .295.239.533.533.533h24.533a.533.533 0 0 0 .533-.533v-1.067a2.67 2.67 0 0 0-2.667-2.667h-6.4v-2.742a15.09 15.09 0 0 0 3.049.32 14.854 14.854 0 0 0 7.04-1.783l.818.823a.534.534 0 0 0 .377.16.532.532 0 0 0 .373-.155l1.513-1.504a.534.534 0 0 0 0-.754zM23.28 6.233a1.067 1.067 0 1 1 .753 1.822h-.003a1.067 1.067 0 0 1-.747-1.823h-.002zm-1.256 3.505-.598 2.946-1.175-1.182 1.774-1.763zm-.605-.902-1.92 1.909-1.485-1.493 3.405-.415zM24.004 28.8a1.6 1.6 0 0 1 1.6 1.6v.533H2.137V30.4a1.6 1.6 0 0 1 1.6-1.6h20.267zm-7.467-2.133v1.067h-5.333v-1.067h5.333zM11.204 25.6v-4.053c0-1.294 1.196-2.347 2.667-2.347s2.667 1.053 2.667 2.347V25.6h-5.333zm6.4-1.696v-2.357c0-1.882-1.675-3.413-3.733-3.413a3.8 3.8 0 0 0-3.281 1.786A13.87 13.87 0 0 1 8.311 4.033l18.602 18.708a13.818 13.818 0 0 1-9.309 1.163zm11.289-.684L7.836 2.039l.755-.752 7.935 7.98c.004 0 .006.007.01.01l13.115 13.191-.757.752z" style="fill:var(--color2, #2e2f42)"/><path fill="#4d5ae5" d="M13.876 20.267h-.005a1.6 1.6 0 1 0-.004 3.2h.005a1.6 1.6 0 1 0 .004-3.2zm.373 1.978a.534.534 0 0 1-.752-.756.534.534 0 0 1 .373-.155.534.534 0 0 1 .374.911h.005z" style="fill:var(--color3, #4d5ae5)"/></symbol><symbol id="icon-astronaut" viewBox="0 0 32 32"><path fill="#4d5ae5" d="M31.974 4.524a.534.534 0 0 0-.43-.363l-1.91-.278-.855-1.731c-.179-.365-.777-.365-.956 0l-.855 1.731-1.91.278a.535.535 0 0 0-.296.91l1.383 1.348-.326 1.903c-.034.2.048.402.212.522a.53.53 0 0 0 .562.04l1.709-.899 1.709.899a.536.536 0 0 0 .775-.563l-.326-1.903 1.383-1.348a.536.536 0 0 0 .135-.547zm-2.463 1.327a.534.534 0 0 0-.153.472l.191 1.114-1-.526a.533.533 0 0 0-.498 0l-1.001.526.191-1.114a.534.534 0 0 0-.153-.472l-.81-.789 1.119-.163a.532.532 0 0 0 .402-.292l.5-1.013.5 1.013a.535.535 0 0 0 .402.292l1.119.163-.809.789zM26.134 20.522h-1.067v1.067h1.067v-1.067zM26.134 22.656h-1.067v1.067h1.067v-1.067zM27.2 21.589h-1.067v1.067H27.2v-1.067zM25.067 21.589H24v1.067h1.067v-1.067zM22.4 26.389h-1.067v1.067H22.4v-1.067zM22.4 28.522h-1.067v1.067H22.4v-1.067zM23.467 27.456H22.4v1.067h1.067v-1.067zM21.333 27.456h-1.067v1.067h1.067v-1.067zM16 24.256h-1.067v1.067H16v-1.067zM16 26.389h-1.067v1.067H16v-1.067zM17.067 25.322H16v1.067h1.067v-1.067zM14.933 25.322h-1.067v1.067h1.067v-1.067zM5.867 6.122H4.8v1.067h1.067V6.122zM5.867 8.255H4.8v1.067h1.067V8.255z" style="fill:var(--color3, #4d5ae5)"/><path fill="#4d5ae5" d="M6.933 7.189H5.866v1.067h1.067V7.189zM4.8 7.189H3.733v1.067H4.8V7.189z" style="fill:var(--color3, #4d5ae5)"/><path fill="#2e2f42" d="M24.715 14.159a1.775 1.775 0 0 0-1.188-.705 1.778 1.778 0 0 0-1.34.352l-1.252.96-1.898 1.417-1.358-.541c2.421-1.086 4.114-3.508 4.114-6.32 0-3.823-3.123-6.933-6.961-6.933s-6.961 3.11-6.961 6.933a6.86 6.86 0 0 0 1.12 3.758l-2.764-.024h-.005c-.009 0-.015.004-.023.005a.515.515 0 0 0-.155.031l-.038.013c-.006.003-.013.003-.019.006l-3.233 1.596-.001.001-1.893.911a.397.397 0 0 0-.063.035 1.779 1.779 0 0 0-.598 2.295c.22.429.595.745 1.056.889a1.776 1.776 0 0 0 1.378-.128l1.388-.738 2.264-1.169 1.357-.008L2.2 22.211l-.002.001-1.339 1.333c-.316.315-.49.732-.49 1.178s.174.863.49 1.179c.325.323.752.485 1.179.485s.854-.162 1.18-.485l1.314-1.309 1.741-1.3.901.897-1.762 1.754-.002.001-1.339 1.333c-.316.315-.49.732-.49 1.178s.174.863.49 1.179c.325.323.753.485 1.18.485s.855-.162 1.18-.485l3.482-3.467.001-.002 1.01-1-.004-.004c.006-.006.015-.009.022-.015l5.166-5.658 3.471.494a.52.52 0 0 0 .262-.033c.018-.006.033-.015.05-.023.019-.01.039-.015.058-.027l3.213-2.133c.012-.008.018-.021.029-.029.013-.01.029-.014.041-.026l1.271-1.191c.662-.62.753-1.635.212-2.362zM2.13 17.77a.714.714 0 0 1-.558.052.717.717 0 0 1-.213-1.26l1.314-.632.449 1.313-.992.527zm3.498-1.828-1.548.8-.439-1.283 2.027-1.001-.04 1.484zm15.099-6.62a5.79 5.79 0 0 1-.599 2.559l-4.181-1.899a1.863 1.863 0 0 0-.788-1.388l1.464-4.86c2.378.756 4.105 2.974 4.105 5.588zm-11.789 0c0-3.235 2.644-5.867 5.894-5.867.253 0 .5.021.745.052l-1.432 4.754c-.019-.001-.037-.006-.057-.006-1.033 0-1.873.837-1.873 1.867s.84 1.867 1.873 1.867c.694 0 1.294-.383 1.618-.945l3.862 1.755a5.894 5.894 0 0 1-4.737 2.39c-3.25 0-5.894-2.632-5.894-5.867zm5.956.8c0 .441-.362.8-.806.8s-.806-.359-.806-.8c0-.441.362-.8.806-.8s.806.359.806.8zM2.465 25.146a.608.608 0 0 1-.854.001.592.592 0 0 1 0-.844l.962-.958.851.848-.959.955zm3.214 3.734a.608.608 0 0 1-.855.001.592.592 0 0 1 0-.844l.963-.959.852.848-.96.955zm3.481-3.469-.002.001-1.765 1.76-.852-.848 1.763-1.755.002-.001c.04-.04.065-.088.09-.135.007-.014.02-.026.026-.04.017-.041.019-.085.026-.129.003-.025.014-.047.014-.073 0-.036-.013-.07-.02-.106-.006-.032-.006-.065-.019-.095a.55.55 0 0 0-.091-.138c-.01-.012-.014-.027-.025-.038h-.001l-.001-.002-1.607-1.6c-.017-.017-.039-.024-.058-.038a.507.507 0 0 0-.087-.058.515.515 0 0 0-.093-.033.507.507 0 0 0-.103-.02.5.5 0 0 0-.095.005.53.53 0 0 0-.104.02.477.477 0 0 0-.094.045c-.02.011-.042.015-.061.029L4.23 23.486l-.901-.897 2.399-2.386 4.361 4.289-.928.919zm6.819-7.017c-.015-.002-.03.004-.045.003a.556.556 0 0 0-.3.075.492.492 0 0 0-.083.061c-.013.011-.028.017-.04.029l-4.698 5.146-4.328-4.257 2.833-2.818a.534.534 0 0 0-.379-.911v-.001l-2.219.013.028-1.607 3.104.027a6.947 6.947 0 0 0 4.981 2.101c.437 0 .864-.045 1.279-.123.04.032.079.065.13.085l2.41.96.152.758.178.885-3.003-.427zm4.041.178-.313-1.558 1.446-1.08.947 1.257-2.08 1.381zm3.754-2.831-.838.785-.931-1.236.831-.637a.735.735 0 0 1 .543-.143.718.718 0 0 1 .48.284.713.713 0 0 1-.085.947z" style="fill:var(--color2, #2e2f42)"/><path fill="#2e2f42" d="m13.602 18.544-2.143-2.133a.534.534 0 0 0-.753 0l-2.142 2.133a.537.537 0 0 0 0 .756l2.142 2.133a.536.536 0 0 0 .753 0l2.143-2.133a.535.535 0 0 0 0-.756zm-2.519 1.759-1.387-1.381 1.387-1.381 1.387 1.381-1.387 1.381zM17.164 5.071l-.258 1.036c.071.018 1.738.452 1.738 2.149h1.067c0-2.017-1.666-2.965-2.547-3.185zM19.711 9.322h-1.067v1.067h1.067V9.322z" style="fill:var(--color2, #2e2f42)"/><path fill="none" stroke="#000" stroke-width=".5" d="M.25.25h31.5v31.5H.25V.25z" style="stroke:var(--color4, #000)"/></symbol><symbol id="icon-clock" viewBox="0 0 32 32"><path fill="#2e2f42" d="M31.297 15.301C31.295 6.849 24.442-.002 15.989 0S.686 6.855.688 15.308a15.304 15.304 0 0 0 10.649 14.576.662.662 0 0 0 .529-.065.637.637 0 0 0 .283-.356l3.865-12.25a1.912 1.912 0 1 0-.84-3.635l-5.106-5.107a.637.637 0 0 0-.902.902l5.103 5.109a1.876 1.876 0 0 0 .536 2.309l-3.683 11.673C3.844 25.783.118 17.71 2.799 10.432S13.553-.572 20.831 2.109c7.278 2.681 11.004 10.754 8.323 18.032a14.042 14.042 0 0 1-7.462 7.973l-.398-1.874a.637.637 0 0 0-1.049-.344l-3.837 3.426a.637.637 0 0 0 .231 1.084l4.899 1.564a.638.638 0 0 0 .819-.74l-.391-1.839a15.255 15.255 0 0 0 9.329-14.089zm-15.305-.637a.638.638 0 1 1 0 1.277.638.638 0 0 1 0-1.277zm2.101 14.864 2.184-1.948.603 2.84-2.787-.892z" style="fill:var(--color2, #2e2f42)"/><path fill="#4d5ae5" d="M15.354 3.185V4.46a.638.638 0 1 0 1.276 0V3.185a.638.638 0 0 0-1.276 0zM3.876 14.664a.638.638 0 0 0 0 1.276h1.275a.638.638 0 1 0 0-1.276H3.876zM28.108 15.939a.638.638 0 1 0 0-1.276h-1.275a.638.638 0 0 0 0 1.276h1.275z" style="fill:var(--color3, #4d5ae5)"/></symbol><symbol id="icon-diagram" viewBox="0 0 32 32"><path fill="#4d5ae5" d="M14.926 14.965h1.066v4.798h-1.066v-4.797zM19.19 17.097h1.066v2.665H19.19v-2.665zM10.661 18.696h1.066v1.066h-1.066v-1.066zM7.463 18.163h1.066v1.599H7.463v-1.599z" style="fill:var(--color3, #4d5ae5)"/><path fill="#2e2f42" d="M1.599 28.291h25.587a1.6 1.6 0 0 0 1.599-1.599V24.56a1.6 1.6 0 0 0-1.599-1.599h-.533V9.668L29.681 6.8a1.608 1.608 0 1 0-.746-.763L26.654 8.2V6.97a1.6 1.6 0 0 0-1.599-1.599H3.733A1.6 1.6 0 0 0 2.134 6.97v15.992h-.533a1.6 1.6 0 0 0-1.599 1.599v2.132a1.6 1.6 0 0 0 1.599 1.599zM30.384 4.837a.533.533 0 1 1 0 1.067.533.533 0 0 1 0-1.067zM3.198 6.969c0-.294.239-.533.533-.533h21.322c.294 0 .533.239.533.533v2.239l-1.066 1.013V8.035a.533.533 0 0 0-.533-.533H4.797a.533.533 0 0 0-.533.533v13.326c0 .294.239.533.533.533h19.19a.533.533 0 0 0 .533-.533v-9.674l1.066-1.01v12.284H3.198V6.969zm4.798 6.93a1.598 1.598 0 1 0 1.107 2.749l1.853.93a.532.532 0 0 0 .636-.123l3.939-4.431 3.872 2.901a.533.533 0 0 0 .686-.039l3.365-3.188v8.131H5.33V8.569h18.124v2.66l-3.771 3.572-3.904-2.927a.533.533 0 0 0-.718.072l-3.993 4.493-1.493-.746c.011-.064.018-.129.02-.193a1.6 1.6 0 0 0-1.599-1.599zm.533 1.599a.533.533 0 1 1-1.067 0 .533.533 0 0 1 1.067 0zm3.198 8.529h5.331v.533a.533.533 0 0 1-.533.533h-4.264a.533.533 0 0 1-.533-.533v-.533zm-10.661.533c0-.294.239-.533.533-.533h9.062v.533a1.6 1.6 0 0 0 1.599 1.599h4.264a1.6 1.6 0 0 0 1.599-1.599v-.533h9.062c.294 0 .533.239.533.533v2.132a.533.533 0 0 1-.533.533H1.598a.533.533 0 0 1-.533-.533V24.56z" style="fill:var(--color2, #2e2f42)"/></symbol><symbol id="icon-instagram" viewBox="0 0 32 32"><path fill="#f4f4fd" d="M31.984 9.413c-.074-1.701-.35-2.871-.744-3.884a7.842 7.842 0 0 0-1.85-2.84l-.001-.001a7.9 7.9 0 0 0-2.78-1.825l-.054-.018c-1.02-.394-2.181-.67-3.882-.744-1.717-.08-2.263-.1-6.605-.1-4.348 0-4.892.02-6.599.094C7.768.169 6.6.445 5.587.839a7.842 7.842 0 0 0-2.84 1.85l-.001.001A7.905 7.905 0 0 0 .919 5.47l-.018.054C.507 6.545.233 7.705.157 9.406c-.08 1.715-.1 2.261-.1 6.605 0 4.348.02 4.892.094 6.599.074 1.701.35 2.871.744 3.884a7.884 7.884 0 0 0 1.851 2.839 7.895 7.895 0 0 0 2.833 1.845c1.021.394 2.181.67 3.884.744 1.707.076 2.251.094 6.599.094 4.346 0 4.89-.02 6.597-.094 1.701-.074 2.871-.35 3.884-.744a8.234 8.234 0 0 0 4.665-4.629l.019-.055c.394-1.02.67-2.181.744-3.884.076-1.707.094-2.251.094-6.599 0-4.346-.006-4.89-.08-6.597zm-2.881 13.07c-.07 1.565-.332 2.409-.552 2.971a5.341 5.341 0 0 1-3.004 3.029l-.036.013c-.562.218-1.413.48-2.97.548-1.689.076-2.195.094-6.467.094s-4.784-.02-6.467-.094c-1.565-.068-2.409-.33-2.971-.55a4.95 4.95 0 0 1-1.838-1.193l-.001-.001a4.97 4.97 0 0 1-1.183-1.805l-.011-.034c-.22-.562-.48-1.413-.55-2.97-.074-1.689-.094-2.197-.094-6.467 0-4.272.02-4.784.094-6.467.07-1.565.332-2.409.55-2.971a4.882 4.882 0 0 1 1.201-1.839 4.98 4.98 0 0 1 1.841-1.195c.56-.22 1.413-.48 2.97-.55 1.689-.074 2.195-.094 6.467-.094 4.278 0 4.782.02 6.467.094 1.563.07 2.407.332 2.97.55a4.923 4.923 0 0 1 1.841 1.195 5 5 0 0 1 1.193 1.841c.22.56.482 1.411.55 2.97.076 1.689.094 2.195.094 6.467s-.018 4.772-.092 6.459z" style="fill:var(--color5, #f4f4fd)"/><path fill="#f4f4fd" d="M16.068 7.786a8.226 8.226 0 0 0-.01 16.448h.009a8.226 8.226 0 0 0 .01-16.448h-.009zm0 13.561a5.337 5.337 0 0 1 0-10.674 5.337 5.337 0 0 1 0 10.674zM26.537 7.462a1.92 1.92 0 1 1-3.842 0 1.92 1.92 0 1 1 3.842 0z" style="fill:var(--color5, #f4f4fd)"/></symbol><symbol id="icon-facebook" viewBox="0 0 32 32"><path d="M19 6h5V0h-5c-3.86 0-7 3.14-7 7v3H8v6h4v16h6V16h5l1-6h-6V7c0-.542.458-1 1-1z"/></symbol><symbol id="icon-twitter" viewBox="0 0 32 32"><path d="M32 7.075a12.941 12.941 0 0 1-3.769 1.031 6.601 6.601 0 0 0 2.887-3.631 13.21 13.21 0 0 1-4.169 1.594A6.565 6.565 0 0 0 22.155 4a6.563 6.563 0 0 0-6.563 6.563c0 .512.056 1.012.169 1.494A18.635 18.635 0 0 1 2.23 5.195a6.56 6.56 0 0 0-.887 3.3 6.557 6.557 0 0 0 2.919 5.463 6.565 6.565 0 0 1-2.975-.819v.081a6.565 6.565 0 0 0 5.269 6.437 6.574 6.574 0 0 1-2.968.112 6.588 6.588 0 0 0 6.131 4.563 13.17 13.17 0 0 1-9.725 2.719 18.568 18.568 0 0 0 10.069 2.95c12.075 0 18.681-10.006 18.681-18.681 0-.287-.006-.569-.019-.85A13.216 13.216 0 0 0 32 7.076z"/></symbol><symbol id="icon-linkedin" viewBox="0 0 32 32"><path d="M12 12h5.535v2.837h.079c.77-1.381 2.655-2.837 5.464-2.837C28.92 12 30 15.637 30 20.367V30h-5.769v-8.54c0-2.037-.042-4.657-3.001-4.657-3.005 0-3.463 2.218-3.463 4.509V30H12V12zM2 12h6v18H2V12zM8 7a3 3 0 1 1-6 0 3 3 0 0 1 6 0z"/></symbol></defs></svg>